#!OML:ASF I:\salsa\salsa 7_09\Patient 1\Session 1\dancerfemale.ASF
:FULLY-SPECIFIED
:DEGREES
1489
root 8.34606 15.9128 1.20543 2.45633 -14.1201 3.04512
lowerback 8.72798 -1.66529 -7.48149
upperback -7.90877 -3.3278 0.723636
thorax -13.1857 -0.832282 5.65985
lowerneck 13.9835 -10.317 -20.4974
upperneck 5.81042 -17.1986 14.3457
head 2.51509 -9.24083 7.56927
rclavicle 3.47376e-014 1.59028e-015
rhumerus 29.4444 24.0508 -77.5587
rradius 72.0334
rwrist -5.24421
rhand -19.4702 -307.882
rfingers 7.12502
rthumb 6.85128 22.2487
lclavicle 3.47376e-014 1.59028e-015
lhumerus -51.1246 -25.5353 121.084
lradius 112.028
lwrist -8.69614
lhand -22.5848 -352.615
lfingers 7.12502
lthumb 3.84406 397.33
rfemur -27.4586 -29.1177 14.6341
rtibia 53.664
rfoot -26.7377 -11.0041
rtoes 26.7939
lfemur -17.0398 -10.1528 -26.911
ltibia 43.7162
lfoot -19.7804 6.00972
ltoes 20.4989
1490
root 8.27205 15.925 1.198 2.39808 -16.8366 3.99354
lowerback 7.54706 -1.40394 -8.34873
upperback -8.11102 -3.05231 0.307972
thorax -12.7319 -0.670728 5.5789
lowerneck 13.4231 -9.6838 -20.1869
upperneck 7.11142 -16.2729 13.6734
head 2.7453 -8.7793 7.31454
rclavicle -2.51214e-014 -7.15625e-015
rhumerus 30.3408 24.6377 -77.2325
rradius 71.1691
rwrist -5.14129
rhand -18.9832 -308.105
rfingers 7.12502
rthumb 7.32138 22.0413
lclavicle -2.51214e-014 -7.15625e-015
lhumerus -50.2616 -27.4285 121.342
lradius 111.9
lwrist -8.27782
lhand -23.9685 -353.047
lfingers 7.12502
lthumb 2.50775 396.918
rfemur -27.8854 -30.6545 14.3042
rtibia 53.3791
rfoot -26.6269 -9.39175
rtoes 31.4835
lfemur -17.3708 -7.0791 -27.5039
ltibia 43.8938
lfoot -19.1284 5.85163
ltoes 19.0863
1491
root 8.18926 15.9223 1.17878 2.13731 -19.9905 5.04928
lowerback 6.40757 -1.1275 -9.2447
upperback -8.3233 -2.75376 -0.211051
thorax -12.3335 -0.499326 5.40993
lowerneck 12.7392 -8.89181 -20.0555
upperneck 8.53581 -15.1628 13.3109
head 3.04594 -8.23667 7.18877
rclavicle 2.87523e-014 -3.13086e-015
rhumerus 31.3392 25.7653 -76.309
rradius 70.8589
rwrist -5.3037
rhand -18.8549 -308.668
rfingers 7.12502
rthumb 7.44517 21.4834
lclavicle 2.87523e-014 -3.13086e-015
lhumerus -49.3642 -29.3248 121.428
lradius 111.773
lwrist -7.8703
lhand -21.0632 -354.27
lfingers 7.12502
lthumb 5.3133 395.644
rfemur -28.452 -32.1332 14.1606
rtibia 53.2973
rfoot -28.2253 -11.2369
rtoes 35.4559
lfemur -17.5963 -4.20362 -28.1388
ltibia 44.0673
lfoot -18.6579 5.82864
ltoes 17.7731
1492
root 8.09573 15.9087 1.14279 1.61583 -23.4942 6.04318
lowerback 5.33314 -0.81345 -10.0512
upperback -8.39117 -2.37561 -0.807986
thorax -11.8327 -0.313091 5.10566
lowerneck 11.7603 -8.07608 -19.8489
upperneck 9.95857 -13.9702 13.1666
head 3.39214 -7.64236 7.11554
rclavicle -1.52319e-014 -1.39149e-014
rhumerus 32.7195 27.1284 -74.6634
rradius 71.1951
rwrist -5.66152
rhand -19.0204 -309.457
rfingers 7.12502
rthumb 7.28546 20.6883
lclavicle -1.52319e-014 -1.39149e-014
lhumerus -48.4435 -31.5182 121.187
lradius 111.774
lwrist -7.25688
lhand -19.4241 -354.599
lfingers 7.12502
lthumb 6.89579 395.269
rfemur -28.9079 -33.3611 14.3146
rtibia 53.3843
rfoot -31.0618 -16.4786
rtoes 34.7927
lfemur -17.6794 -1.49707 -28.5794
ltibia 44.3598
lfoot -18.2678 5.95534
ltoes 18.5229
1493
root 7.99435 15.8877 1.09095 0.889417 -27.303 7.05713
lowerback 4.26762 -0.51421 -10.832
upperback -8.34981 -1.98608 -1.41992
thorax -11.2206 -0.134991 4.78396
lowerneck 10.5784 -7.18984 -19.7641
upperneck 11.2484 -12.6717 13.3209
head 3.74142 -6.98655 7.16489
rclavicle 3.12589e-014 -3.45885e-014
rhumerus 34.6705 28.2639 -73.1545
rradius 71.1905
rwrist -5.80956
rhand -19.0259 -309.808
rfingers 7.12502
rthumb 7.28013 20.3368
lclavicle 3.12589e-014 -3.45885e-014
lhumerus -47.3414 -33.8416 120.68
lradius 111.739
lwrist -6.53775
lhand -18.0394 -354.814
lfingers 7.12502
lthumb 8.23226 395.006
rfemur -29.4467 -34.2798 14.672
rtibia 53.58
rfoot -34.1534 -21.3332
rtoes 37.8621
lfemur -17.7399 0.892296 -28.9372
ltibia 44.8695
lfoot -18.0521 6.41964
ltoes 20.4467
1494
root 7.89227 15.8689 1.02373 -0.053222 -31.3266 8.14663
lowerback 3.37626 -0.217351 -11.5732
upperback -8.30918 -1.60373 -2.06285
thorax -10.7235 0.0392294 4.4264
lowerneck 9.34676 -6.29917 -19.6325
upperneck 12.3823 -11.3489 13.5505
head 4.0484 -6.30846 7.24356
rclavicle -6.22196e-014 1.55052e-014
rhumerus 36.9938 29.0997 -71.789
rradius 70.9084
rwrist -5.62005
rhand -18.7293 -310.15
rfingers 7.12502
rthumb 7.56649 20.0054
lclavicle -6.22196e-014 1.55052e-014
lhumerus -46.0554 -35.8404 120.185
lradius 111.532
lwrist -6.20755
lhand -16.9524 -354.936
lfingers 7.12502
lthumb 9.28126 394.84
rfemur -29.9274 -34.9057 15.1643
rtibia 53.7126
rfoot -36.8011 -26.137
rtoes 34.8847
lfemur -17.7858 2.95567 -29.2649
ltibia 45.5464
lfoot -17.917 7.1795
ltoes 21.4138
1495
root 7.79267 15.8563 0.947178 -1.08389 -35.3314 9.06357
lowerback 2.79701 -0.0523981 -12.1561
upperback -8.3443 -1.41012 -2.53359
thorax -10.4695 0.133054 4.20435
lowerneck 8.06963 -5.39057 -19.4424
upperneck 13.4052 -9.96017 13.5976
head 4.30865 -5.59306 7.26317
rclavicle -1.67973e-014 -1.35174e-014
rhumerus 39.5975 30.0572 -70.0239
rradius 70.8509
rwrist -5.42886
rhand -18.3558 -310.675
rfingers 7.12502
rthumb 7.92694 19.4933
lclavicle -1.67973e-014 -1.35174e-014
lhumerus -44.5455 -37.3083 119.846
lradius 111.105
lwrist -6.19935
lhand -16.2567 -355.069
lfingers 7.12502
lthumb 9.95248 394.676
rfemur -30.3108 -35.5492 16.0011
rtibia 53.5668
rfoot -37.8353 -28.0008
rtoes 33.5693
lfemur -17.745 4.50793 -29.3056
ltibia 46.2784
lfoot -17.7975 8.2375
ltoes 22.2482
1496
root 7.69136 15.8436 0.858496 -2.20551 -39.4858 9.79929
lowerback 2.44501 0.027656 -12.5876
upperback -8.40469 -1.34101 -2.88196
thorax -10.3579 0.168595 4.05077
lowerneck 6.88141 -4.40073 -19.2804
upperneck 14.1639 -8.46788 13.7572
head 4.46444 -4.82261 7.34065
rclavicle 5.19822e-014 2.54444e-014
rhumerus 42.5409 31.013 -67.9068
rradius 71.1442
rwrist -5.29824
rhand -18.0248 -311.365
rfingers 7.12502
rthumb 8.24638 18.8162
lclavicle 5.19822e-014 2.54444e-014
lhumerus -42.9628 -38.3512 119.498
lradius 110.551
lwrist -6.31172
lhand -15.6009 -355.383
lfingers 7.12502
lthumb 10.5852 394.331
rfemur -30.5249 -35.7078 17.2157
rtibia 53.1138
rfoot -37.7864 -27.5476
rtoes 36.6651
lfemur -17.5785 5.87915 -29.0343
ltibia 47.0541
lfoot -17.5532 9.48526
ltoes 23.1641
1497
root 7.58655 15.85 0.758725 -3.56094 -43.8201 10.5857
lowerback 1.9759 0.190079 -12.998
upperback -8.22096 -1.11147 -3.27982
thorax -9.92254 0.251229 3.81958
lowerneck 5.70853 -3.491 -19.1186
upperneck 14.4764 -7.09824 14.3444
head 4.51312 -4.08612 7.55846
rclavicle 3.4191e-014 1.90833e-014
rhumerus 46.0794 31.1143 -65.3288
rradius 71.4838
rwrist -5.12551
rhand -17.5441 -311.788
rfingers 7.12502
rthumb 8.71031 18.4121
lclavicle 3.4191e-014 1.90833e-014
lhumerus -40.9491 -39.7756 119.103
lradius 109.765
lwrist -6.38519
lhand -14.2884 -355.676
lfingers 7.12502
lthumb 11.851 393.968
rfemur -30.6234 -35.1804 18.437
rtibia 52.2933
rfoot -36.7498 -26.9985
rtoes 38.4409
lfemur -17.2476 7.1638 -28.6561
ltibia 47.8354
lfoot -17.1987 11.1394
ltoes 23.7055
1498
root 7.48269 15.8549 0.648367 -5.2083 -48.3137 11.7775
lowerback 1.18842 0.263052 -13.5546
upperback -7.84779 -0.926563 -3.69968
thorax -9.07928 0.291001 3.65737
lowerneck 4.34405 -2.59517 -18.7951
upperneck 14.5452 -5.67008 14.8178
head 4.49898 -3.29751 7.70665
rclavicle -1.21259e-014 -3.65764e-014
rhumerus 50.398 30.751 -62.1497
rradius 71.9591
rwrist -5.39452
rhand -17.4206 -311.756
rfingers 7.12502
rthumb 8.82948 18.4484
lclavicle -1.21259e-014 -3.65764e-014
lhumerus -38.4302 -41.126 118.335
lradius 108.782
lwrist -6.73189
lhand -12.7264 -355.565
lfingers 7.12502
lthumb 13.3569 393.987
rfemur -31.0675 -34.1499 19.6721
rtibia 51.2528
rfoot -34.6273 -26.2906
rtoes 42.4518
lfemur -17.0598 8.35707 -28.4412
ltibia 48.7068
lfoot -16.668 13.2433
ltoes 24.5949
1499
root 7.38237 15.8535 0.530085 -7.50462 -53.0055 13.7316
lowerback 0.305355 0.232772 -14.1674
upperback -7.5366 -0.875763 -4.271
thorax -8.24065 0.257408 3.37797
lowerneck 3.0754 -1.54387 -18.3776
upperneck 14.5784 -4.06487 15.3919
head 4.42347 -2.41455 7.88287
rclavicle 1.35174e-014 5.56597e-014
rhumerus 54.9899 30.1475 -59.2779
rradius 72.1599
rwrist -5.6902
rhand -17.229 -310.875
rfingers 7.12502
rthumb 9.01437 19.3377
lclavicle 1.35174e-014 5.56597e-014
lhumerus -36.0167 -42.2812 117.435
lradius 107.745
lwrist -7.26464
lhand -12.0123 -355.51
lfingers 7.12502
lthumb 14.0451 393.995
rfemur -31.2052 -32.511 20.6307
rtibia 50.0588
rfoot -34.2617 -26.1641
rtoes 45.7787
lfemur -17.0234 9.34814 -28.5824
ltibia 49.7597
lfoot -15.9869 15.8459
ltoes 26.2298
1500
root 7.28525 15.8532 0.406732 -10.5198 -57.6608 16.4002
lowerback -0.546717 0.0935865 -14.542
upperback -7.29855 -0.97572 -4.99182
thorax -7.48259 0.128896 2.82059
lowerneck 1.97989 -0.410104 -18.0265
upperneck 14.4619 -2.40316 16.2219
head 4.26175 -1.49915 8.15606
rclavicle -1.59028e-015 -2.22639e-014
rhumerus 59.8116 29.1146 -56.3368
rradius 72.4867
rwrist -6.44642
rhand -17.2089 -309.775
rfingers 7.12502
rthumb 9.03378 20.4385
lclavicle -1.59028e-015 -2.22639e-014
lhumerus -33.7623 -43.3735 116.389
lradius 106.765
lwrist -7.63148
lhand -11.6305 -354.916
lfingers 7.12502
lthumb 14.413 394.564
rfemur -30.9486 -30.6939 21.3797
rtibia 48.7062
rfoot -34.271 -26.6457
rtoes 45.6124
lfemur -17.1333 9.98031 -28.884
ltibia 51.1123
lfoot -15.0284 18.6186
ltoes 30.7849
